<?xml version="1.0" encoding="UTF-8"?>
<!DOCTYPE svg PUBLIC "-//W3C//DTD SVG 1.1//EN" "http://www.w3.org/Graphics/SVG/1.1/DTD/svg11.dtd">
<!-- Creator: CorelDRAW X6 -->
<svg xmlns="http://www.w3.org/2000/svg" xml:space="preserve" width="19.2606mm" height="15.5903mm" version="1.1" style="shape-rendering:geometricPrecision; text-rendering:geometricPrecision; image-rendering:optimizeQuality; fill-rule:evenodd; clip-rule:evenodd"
viewBox="0 0 2668 2159"
 xmlns:xlink="http://www.w3.org/1999/xlink">
 <defs>
  <style type="text/css">
   <![CDATA[
    .fil0 {fill:white;fill-rule:nonzero}
   ]]>
  </style>
 </defs>
 <g id="Слой_x0020_1">
  <metadata id="CorelCorpID_0Corel-Layer"/>
  <path class="fil0" d="M742 1183l274 275 488 -165 0 -191c-4,-8 -6,-16 -6,-25 0,-13 5,-26 14,-36l514 -513c18,-18 28,-42 28,-67 0,-25 -10,-49 -28,-67l-221 -220c-18,-18 -41,-28 -67,-28 -25,0 -49,10 -66,28l-514 513c-9,10 -22,15 -36,15 -8,0 -17,-2 -24,-6l-192 0 -164 487zm261 384c-13,0 -26,-6 -36,-15l-319 -319c-14,-14 -19,-34 -13,-53l187 -552c7,-20 26,-34 48,-34l237 0 493 -492c37,-37 86,-58 138,-58 53,0 102,21 139,58l221 220c37,37 57,87 57,139 0,52 -20,102 -57,139l-492 492 0 238c0,21 -14,41 -35,48l-552 186c-5,2 -11,3 -16,3z"/>
  <path class="fil0" d="M732 2159c-2,0 -4,0 -6,0 -177,-24 -339,-100 -469,-220 -131,-121 -219,-277 -256,-450 -6,-28 12,-55 39,-61 28,-5 55,12 61,40 32,153 110,290 225,396 115,106 258,173 413,194 28,4 47,29 44,57 -4,26 -26,44 -51,44z"/>
  <path class="fil0" d="M830 1740c-101,0 -197,-37 -271,-106 -77,-71 -122,-168 -128,-273 -1,-28 21,-52 49,-54 28,-1 52,21 53,49 4,78 38,150 95,203 57,54 132,82 211,79 0,0 1,0 1,0 28,0 50,22 51,50 1,28 -21,51 -50,52 -3,0 -7,0 -11,0z"/>
  <path class="fil0" d="M2198 1461c-85,0 -164,-33 -225,-94 -123,-123 -124,-325 0,-449l61 -67c0,-1 1,-1 1,-2l378 -378c41,-41 64,-95 64,-153 0,-58 -23,-112 -64,-153 -40,-41 -95,-64 -153,-64 -57,0 -112,23 -153,64l-108 108c-20,20 -52,20 -72,0 -20,-19 -20,-52 0,-71l108 -109c124,-124 326,-124 450,0 124,124 124,326 0,450l-377 377 -61 68c-1,0 -1,1 -2,1 -84,85 -84,222 0,306 41,41 96,64 153,64 58,0 113,-23 154,-64l229 -229c20,-20 52,-20 72,0 20,20 20,52 0,72l-230 229c-60,61 -140,94 -225,94z"/>
 </g>
</svg>
