<?xml version="1.0" encoding="UTF-8"?>
<!DOCTYPE svg PUBLIC "-//W3C//DTD SVG 1.1//EN" "http://www.w3.org/Graphics/SVG/1.1/DTD/svg11.dtd">
<!-- Creator: CorelDRAW X6 -->
<svg xmlns="http://www.w3.org/2000/svg" xml:space="preserve" width="19.2607mm" height="15.5903mm" version="1.1" style="shape-rendering:geometricPrecision; text-rendering:geometricPrecision; image-rendering:optimizeQuality; fill-rule:evenodd; clip-rule:evenodd"
viewBox="0 0 576 466"
 xmlns:xlink="http://www.w3.org/1999/xlink">
 <defs>
  <style type="text/css">
   <![CDATA[
    .fil0 {fill:#13A99F;fill-rule:nonzero}
   ]]>
  </style>
 </defs>
 <g id="Слой_x0020_1">
  <metadata id="CorelCorpID_0Corel-Layer"/>
  <path class="fil0" d="M160 255l59 60 106 -36 0 -41c-1,-2 -2,-4 -2,-5 0,-3 1,-6 4,-8l110 -111c4,-4 6,-9 6,-14 0,-6 -2,-11 -6,-15l-47 -48c-4,-3 -9,-5 -15,-5 -5,0 -10,2 -14,5l-111 111c-2,2 -5,4 -8,4 -2,0 -3,-1 -5,-2l-41 0 -36 105zm57 83c-3,0 -6,-1 -8,-3l-69 -69c-3,-3 -4,-7 -3,-11l40 -119c2,-5 6,-8 11,-8l51 0 106 -106c8,-8 19,-12 30,-12 12,0 22,4 30,12l48 48c8,8 12,18 12,30 0,11 -4,21 -12,29l-106 107 0 51c0,5 -3,9 -8,10l-119 41c-1,0 -2,0 -3,0z"/>
  <path class="fil0" d="M158 466c0,0 -1,0 -1,0 -38,-5 -73,-21 -102,-47 -28,-26 -47,-60 -55,-98 -1,-6 3,-11 9,-13 6,-1 11,3 13,9 7,33 24,63 48,85 25,23 56,38 90,42 6,1 10,7 9,13 -1,5 -5,9 -11,9z"/>
  <path class="fil0" d="M179 376c-22,0 -42,-8 -58,-23 -17,-16 -27,-37 -28,-59 0,-6 5,-11 11,-12 6,0 11,5 11,11 1,17 8,32 21,44 12,11 28,17 45,17 0,0 0,0 0,0 6,0 11,4 11,10 1,6 -4,12 -10,12 -1,0 -2,0 -3,0z"/>
  <path class="fil0" d="M475 315c-19,0 -36,-7 -49,-20 -27,-26 -27,-70 0,-97l13 -14c0,0 0,-1 0,-1l82 -81c9,-9 14,-21 14,-33 0,-13 -5,-25 -14,-33 -9,-9 -20,-14 -33,-14 -12,0 -24,5 -33,14l-23 23c-5,4 -12,4 -16,0 -4,-4 -4,-11 0,-15l23 -24c27,-27 71,-27 98,0 26,27 26,70 0,97l-82 82 -13 14c0,0 0,0 0,1 -19,18 -19,47 0,66 8,9 20,13 33,13 12,0 24,-4 33,-13l49 -50c4,-4 11,-4 16,0 4,4 4,11 0,16l-50 49c-13,13 -30,20 -48,20z"/>
 </g>
</svg>
