<?xml version="1.0" encoding="UTF-8"?>
<!DOCTYPE svg PUBLIC "-//W3C//DTD SVG 1.1//EN" "http://www.w3.org/Graphics/SVG/1.1/DTD/svg11.dtd">
<!-- Creator: CorelDRAW X6 -->
<svg xmlns="http://www.w3.org/2000/svg" xml:space="preserve" width="24.989mm" height="18.211mm" version="1.1" style="shape-rendering:geometricPrecision; text-rendering:geometricPrecision; image-rendering:optimizeQuality; fill-rule:evenodd; clip-rule:evenodd"
viewBox="0 0 965 703"
 xmlns:xlink="http://www.w3.org/1999/xlink">
 <defs>
  <style type="text/css">
   <![CDATA[
    .fil0 {fill:#D9DDE4}
    .fil1 {fill:white}
   ]]>
  </style>
 </defs>
 <g id="Слой_x0020_1">
  <metadata id="CorelCorpID_0Corel-Layer"/>
  <path class="fil0" d="M441 149c29,-21 66,-25 92,1l12 12c19,-28 50,-32 82,-24l5 2 23 23c9,-9 18,-18 26,-27 16,-55 17,-80 5,-109 33,0 62,-2 88,24 62,62 113,122 174,182 23,28 2,80 -6,111 -7,25 -16,58 -18,84l41 40c-14,45 -26,83 -60,118 -34,35 -78,53 -126,57 -95,8 -203,-33 -294,-55 -24,-6 -70,-18 -95,-7 -5,1 -8,4 -11,7l63 64c-17,20 -26,34 -51,44 -37,14 -83,7 -115,-17l-7 -5 -91 -92c-4,-4 -8,-7 -11,-11 -18,1 -38,-6 -51,-18l-92 -92c-30,-30 -27,-59 -17,-95 10,3 27,8 37,3 26,-12 40,-89 45,-115l-61 -61 3 -12c6,-19 24,-35 45,-35l36 0c20,-72 56,-146 142,-146 28,0 53,9 72,29 40,39 77,82 115,120z"/>
  <path class="fil1" d="M447 265c35,-8 64,-65 41,-65 -13,0 -29,31 -41,65zm89 150c-34,-3 -3,-58 42,-112 6,66 -4,115 -42,112zm174 -368c10,18 2,56 -11,99 -20,22 -48,49 -77,79 -1,-7 -2,-13 -3,-20 -3,-16 -11,-34 3,-47 -12,-3 -22,-4 -30,-3 -27,4 -35,24 -42,46 -20,65 -74,158 -106,158 -20,0 -14,-34 -4,-70 75,-6 126,-137 48,-137 -59,0 -114,116 -114,185 0,30 23,55 60,54 51,-1 108,-113 130,-166 4,18 8,35 10,51 -42,48 -77,96 -77,129 0,35 32,42 37,43 62,10 112,-36 106,-117 -3,-36 -8,-60 -13,-84 22,-24 43,-45 59,-60 -30,97 -63,203 24,204 5,-51 41,-141 69,-179l6 0c-22,43 -77,225 -5,225 13,0 28,-14 35,-24l5 3c-97,191 -343,7 -506,-7 -63,-6 -150,12 -150,100 0,79 115,112 160,53 -22,10 -62,-6 -62,-45 0,-40 33,-52 62,-52 136,0 451,198 527,-82 0,0 0,0 -1,0 -27,6 -36,-7 -37,-29 -2,-33 10,-77 21,-117 8,-28 31,-89 -12,-89 -39,0 -83,85 -105,139l-4 0c13,-50 45,-111 55,-161 8,-44 -1,-79 -58,-79zm-456 -27c-76,0 -107,69 -126,147l-52 0c-10,0 -21,6 -25,20l72 0c-23,106 -31,220 -102,203 -8,28 10,70 53,70 88,0 96,-153 113,-273l45 0c-11,70 -67,212 34,204 11,-72 53,-172 66,-194l6 0c-13,64 45,62 67,17 -42,-4 18,-93 -30,-93 -45,0 -86,118 -101,158l-5 0c8,-36 24,-71 18,-93 -7,-23 -34,-19 -53,-19l-44 0c11,-68 26,-121 64,-121 42,0 18,75 -16,75 18,42 96,35 96,-31 0,-25 -25,-70 -80,-70z"/>
 </g>
</svg>
