<?xml version="1.0" encoding="UTF-8"?>
<!DOCTYPE svg PUBLIC "-//W3C//DTD SVG 1.1//EN" "http://www.w3.org/Graphics/SVG/1.1/DTD/svg11.dtd">
<!-- Creator: CorelDRAW X6 -->
<svg xmlns="http://www.w3.org/2000/svg" xml:space="preserve" width="24.9891mm" height="18.211mm" version="1.1" style="shape-rendering:geometricPrecision; text-rendering:geometricPrecision; image-rendering:optimizeQuality; fill-rule:evenodd; clip-rule:evenodd"
viewBox="0 0 7547 5500"
 xmlns:xlink="http://www.w3.org/1999/xlink">
 <defs>
  <style type="text/css">
   <![CDATA[
    .fil0 {fill:#13A89F}
    .fil1 {fill:white}
   ]]>
  </style>
 </defs>
 <g id="Слой_x0020_1">
  <metadata id="CorelCorpID_0Corel-Layer"/>
  <path class="fil0" d="M3449 1165c224,-165 518,-196 721,7l96 96c144,-218 391,-251 640,-185l41 11 177 178c69,-70 137,-140 204,-211 125,-428 135,-619 41,-852 254,0 481,-17 685,186 487,487 883,955 1359,1431 180,212 19,620 -49,866 -53,193 -120,454 -134,652l317 316c-111,352 -205,650 -469,926 -263,275 -609,409 -983,441 -748,66 -1589,-255 -2303,-431 -184,-45 -546,-136 -742,-55 -35,15 -64,33 -89,62l499 498c-132,155 -208,262 -404,339 -291,116 -648,57 -897,-127l-52 -42 -717 -716c-30,-31 -60,-61 -87,-92 -137,7 -295,-45 -397,-138l-716 -716c-237,-237 -216,-462 -132,-748 77,26 208,65 287,29 205,-95 312,-701 351,-903l-478 -479 27 -91c48,-153 181,-272 347,-272l285 0c155,-564 434,-1145 1113,-1145 213,0 411,73 563,225 306,306 601,646 896,940z"/>
  <path class="fil1" d="M3496 2071c278,-61 498,-507 324,-507 -105,0 -233,239 -324,507zm697 1175c-269,-23 -27,-452 325,-880 53,519 -28,906 -325,880zm1362 -2879c78,144 15,435 -86,775 -159,170 -377,385 -600,615 -10,-49 -20,-99 -29,-153 -22,-126 -84,-267 25,-368 -92,-25 -168,-30 -233,-22 -214,28 -272,183 -327,357 -163,510 -586,1239 -832,1239 -156,0 -107,-267 -33,-553 584,-46 983,-1068 380,-1068 -464,0 -892,907 -892,1447 0,238 179,429 470,421 399,-10 840,-879 1014,-1300 32,140 59,275 79,404 -334,374 -605,746 -605,1003 0,281 253,333 289,339 486,77 877,-278 829,-914 -21,-280 -59,-467 -100,-660 172,-183 339,-347 465,-463 -238,753 -498,1586 182,1591 38,-394 325,-1101 540,-1397l47 0c-169,335 -600,1756 -38,1756 106,0 218,-108 275,-182l39 18c-760,1498 -2680,57 -3958,-55 -490,-43 -1173,93 -1173,780 0,623 896,879 1252,422 -176,72 -488,-53 -488,-352 0,-318 260,-407 484,-407 1064,0 3531,1542 4126,-646 -1,0 -3,1 -6,1 -210,50 -281,-55 -291,-227 -14,-254 79,-605 166,-917 62,-220 239,-694 -98,-694 -304,0 -646,664 -820,1086l-31 0c101,-388 352,-868 426,-1260 65,-343 -6,-616 -448,-616zm-3565 -209c-596,0 -840,534 -991,1145l-408 0c-72,0 -160,49 -195,161l566 0c-183,827 -241,1718 -795,1586 -64,219 75,545 410,545 688,0 752,-1194 884,-2131l357 0c-92,543 -528,1655 260,1593 89,-563 414,-1343 521,-1513l42 0c-103,496 352,480 528,130 -327,-28 136,-725 -233,-725 -356,0 -676,917 -791,1231l-42 0c66,-278 188,-557 139,-724 -52,-178 -265,-153 -408,-153l-349 0c84,-530 205,-943 505,-943 325,0 135,588 -129,588 141,324 749,276 749,-247 0,-193 -191,-543 -620,-543z"/>
 </g>
</svg>
