<?xml version="1.0" encoding="UTF-8"?>
<!DOCTYPE svg PUBLIC "-//W3C//DTD SVG 1.1//EN" "http://www.w3.org/Graphics/SVG/1.1/DTD/svg11.dtd">
<!-- Creator: CorelDRAW X6 -->
<svg xmlns="http://www.w3.org/2000/svg" xml:space="preserve" width="19.4191mm" height="16.0577mm" version="1.1" style="shape-rendering:geometricPrecision; text-rendering:geometricPrecision; image-rendering:optimizeQuality; fill-rule:evenodd; clip-rule:evenodd"
viewBox="0 0 585 484"
 xmlns:xlink="http://www.w3.org/1999/xlink">
 <defs>
  <style type="text/css">
   <![CDATA[
    .fil0 {fill:#13A99F;fill-rule:nonzero}
   ]]>
  </style>
 </defs>
 <g id="Слой_x0020_1">
  <metadata id="CorelCorpID_0Corel-Layer"/>
  <path class="fil0" d="M264 463c2,0 4,1 5,2 -1,-1 -3,-2 -5,-2zm39 6c0,0 -1,1 -1,2 0,-1 1,-2 1,-2zm9 15c-5,0 -10,-4 -10,-10 0,-1 0,-1 0,-2 0,-3 0,-11 0,-19 -1,-24 -1,-41 0,-47 2,-14 12,-23 21,-31 5,-5 10,-9 13,-14 2,-4 5,-8 7,-12 11,-18 23,-39 23,-57 0,-7 -1,-15 -2,-22 -3,-17 -6,-35 3,-53 4,-8 8,-15 12,-21 9,-16 17,-29 17,-51 0,-52 -54,-124 -108,-124 -51,0 -104,72 -104,124 0,23 8,34 18,48 5,8 12,17 17,28 6,14 2,31 -1,48 -2,9 -4,17 -4,23 0,15 8,32 17,48 2,5 4,9 6,13 3,6 9,12 16,18 9,8 18,16 21,27 2,7 2,20 1,50 0,9 -1,19 -1,23 1,1 1,2 1,3 0,6 -5,10 -11,10 -2,0 -5,-1 -7,-3 -4,-4 -4,-6 -3,-34 1,-13 2,-38 0,-43 -1,-5 -8,-12 -15,-18 -8,-7 -17,-15 -21,-24 -2,-4 -4,-8 -6,-12 -9,-18 -19,-38 -19,-58 0,-8 2,-18 4,-27 3,-13 6,-28 3,-35 -4,-10 -10,-17 -15,-25 -11,-15 -22,-30 -22,-60 0,-63 61,-145 125,-145 65,0 129,83 129,145 0,27 -10,45 -20,61 -4,7 -8,13 -11,20 -6,12 -4,25 -2,40 2,8 3,17 3,26 0,24 -14,47 -26,67 -3,4 -5,8 -7,12 -4,8 -11,13 -17,19 -7,6 -13,13 -15,19 0,5 0,30 1,43 0,26 0,26 -3,29 -2,2 -5,3 -8,3z"/>
  <path class="fil0" d="M557 171c-3,0 -5,-1 -7,-3 -5,-4 -5,-10 -1,-14 22,-22 19,-52 5,-70 -15,-19 -39,-22 -63,-9 -30,30 -55,44 -85,47 -6,0 -11,-4 -11,-10 -1,-6 3,-11 9,-11 25,-2 47,-15 73,-41 1,-1 2,-1 3,-2 40,-24 74,-8 90,13 19,25 24,67 -6,97 -2,2 -5,3 -7,3z"/>
  <path class="fil0" d="M486 191c0,6 2,12 3,19 2,6 5,12 8,17 34,-25 48,-51 45,-58 0,-1 -2,-1 -5,-1 -9,0 -27,5 -50,21l-1 2zm9 61c-3,0 -6,-1 -8,-4 -8,-8 -14,-19 -17,-32 -3,-10 -5,-19 -5,-29 0,-3 1,-5 3,-7l5 -6c0,0 1,0 1,-1 24,-17 46,-26 63,-26 12,0 21,5 25,15 9,23 -21,59 -55,83l-6 5c-2,1 -4,2 -6,2z"/>
  <path class="fil0" d="M29 171c-3,0 -6,-1 -8,-3 -29,-30 -25,-72 -6,-97 17,-21 50,-37 91,-13 1,1 1,1 2,2 26,26 47,38 71,41 6,0 10,5 9,11 -1,6 -6,10 -12,9 -28,-3 -53,-17 -82,-46 -24,-13 -47,-10 -62,9 -14,18 -18,48 4,70 4,4 4,10 0,14 -2,2 -5,3 -7,3z"/>
  <path class="fil0" d="M48 168c-2,0 -5,0 -5,1 -2,7 11,33 45,58 4,-5 6,-11 8,-17 2,-7 3,-13 3,-19l-1 -2c-22,-16 -41,-21 -50,-21zm43 84c-2,0 -4,-1 -6,-2l-7 -5c-34,-24 -63,-60 -54,-83 3,-10 12,-15 24,-15 17,0 40,9 63,26 1,1 1,1 2,1l5 6c1,2 2,4 2,7 0,10 -1,19 -4,29 -4,13 -10,24 -17,32 -3,3 -5,4 -8,4z"/>
  <path class="fil0" d="M258 153c9,18 23,53 32,101 9,-48 23,-83 32,-101l-64 0zm34 190l-4 0c-6,0 -10,-4 -11,-10 -3,-116 -44,-185 -45,-185 -2,-3 -2,-7 0,-11 2,-3 5,-5 9,-5l98 0c4,0 7,2 9,5 2,4 2,8 0,11 0,0 -42,69 -45,185 0,6 -5,10 -11,10z"/>
 </g>
</svg>
