<?xml version="1.0" encoding="UTF-8"?>
<!DOCTYPE svg PUBLIC "-//W3C//DTD SVG 1.1//EN" "http://www.w3.org/Graphics/SVG/1.1/DTD/svg11.dtd">
<!-- Creator: CorelDRAW X6 -->
<svg xmlns="http://www.w3.org/2000/svg" xml:space="preserve" width="19.4191mm" height="16.0577mm" version="1.1" style="shape-rendering:geometricPrecision; text-rendering:geometricPrecision; image-rendering:optimizeQuality; fill-rule:evenodd; clip-rule:evenodd"
viewBox="0 0 2711 2242"
 xmlns:xlink="http://www.w3.org/1999/xlink">
 <defs>
  <style type="text/css">
   <![CDATA[
    .fil0 {fill:white;fill-rule:nonzero}
   ]]>
  </style>
 </defs>
 <g id="Слой_x0020_1">
  <metadata id="CorelCorpID_0Corel-Layer"/>
  <path class="fil0" d="M1224 2146c8,0 16,2 22,5 -6,-3 -13,-5 -22,-5zm180 24c-2,4 -4,7 -5,11 2,-4 3,-8 5,-11zm42 72c-27,0 -48,-22 -48,-48 0,-3 0,-5 1,-8 0,-12 -1,-53 -2,-90 -2,-109 -3,-188 1,-215 10,-65 57,-108 99,-146 24,-22 46,-42 58,-63 11,-19 22,-38 34,-58 50,-83 107,-178 107,-263 0,-33 -6,-67 -11,-103 -12,-74 -25,-159 15,-242 18,-37 36,-68 54,-99 45,-75 80,-135 80,-235 0,-241 -252,-576 -499,-576 -239,0 -483,335 -483,576 0,107 37,158 83,224 26,35 54,76 79,128 28,62 10,143 -7,221 -8,40 -17,78 -17,105 0,73 40,151 78,226 10,21 20,41 29,60 12,26 43,54 73,81 41,38 84,77 100,128 9,29 8,91 3,230 -2,40 -4,88 -3,105 1,4 2,9 2,14 0,26 -21,48 -48,48 -13,0 -26,-6 -35,-15 -17,-18 -17,-26 -12,-155 2,-62 7,-177 1,-199 -8,-25 -41,-56 -73,-85 -37,-33 -75,-68 -95,-111 -9,-19 -18,-38 -28,-58 -41,-81 -88,-173 -88,-269 0,-37 10,-80 19,-125 13,-57 28,-128 13,-160 -20,-45 -45,-80 -69,-114 -50,-70 -101,-142 -101,-279 0,-293 281,-672 579,-672 301,0 595,385 595,672 0,126 -47,206 -93,284 -17,29 -35,59 -50,91 -27,57 -18,117 -7,186 6,38 12,77 12,118 0,111 -64,218 -121,313 -11,19 -22,37 -32,55 -20,35 -49,61 -77,87 -33,30 -64,58 -69,90 -3,20 -1,136 0,198 3,118 3,118 -13,133 -9,10 -21,15 -34,15z"/>
  <path class="fil0" d="M2578 793c-12,0 -24,-5 -33,-14 -19,-18 -20,-49 -1,-68 100,-101 86,-240 20,-323 -70,-89 -177,-103 -289,-39 -139,137 -257,201 -395,214 -27,2 -50,-17 -52,-44 -3,-26 17,-49 43,-52 115,-11 217,-67 340,-190 3,-3 6,-5 9,-7 188,-112 344,-39 420,58 89,114 110,311 -27,451 -10,9 -22,14 -35,14z"/>
  <path class="fil0" d="M2251 883c2,30 7,59 15,88 9,30 21,58 35,81 159,-116 223,-238 211,-270 -2,-3 -12,-6 -25,-6 -41,0 -126,27 -231,101l-5 6zm40 283c-13,0 -27,-5 -36,-16 -35,-39 -63,-92 -81,-152 -13,-43 -19,-88 -20,-132 0,-13 4,-25 13,-34l22 -24c2,-2 5,-5 7,-6 108,-78 214,-122 291,-122 57,0 98,25 115,68 40,107 -97,276 -253,388l-31 22c-8,5 -18,8 -27,8z"/>
  <path class="fil0" d="M133 793c-13,0 -25,-5 -34,-14 -138,-140 -117,-337 -27,-451 76,-97 231,-170 419,-58 3,2 6,4 9,7 120,119 218,176 328,189 27,3 46,27 42,53 -3,27 -27,45 -53,42 -130,-15 -248,-81 -380,-212 -112,-64 -220,-50 -290,39 -66,83 -80,222 20,323 19,19 18,50 0,68 -10,9 -22,14 -34,14z"/>
  <path class="fil0" d="M224 776c-13,0 -23,3 -25,6 -11,32 52,154 211,270 14,-23 26,-51 35,-81 8,-29 14,-58 15,-88l-5 -6c-105,-74 -190,-101 -231,-101zm196 390c-9,0 -19,-2 -27,-8l-31 -22c-156,-112 -293,-281 -252,-388 16,-43 57,-68 114,-68 77,0 183,44 291,122 2,1 5,4 7,6l23 24c8,9 13,21 12,34 0,44 -7,89 -20,132 -18,60 -46,113 -81,152 -9,11 -22,16 -36,16z"/>
  <path class="fil0" d="M1195 707c42,86 107,247 148,471 41,-224 106,-385 148,-471l-296 0zm159 881l-22 0c-26,0 -47,-20 -48,-46 -15,-537 -207,-855 -209,-858 -9,-14 -10,-33 -1,-48 8,-15 24,-25 42,-25l454 0c18,0 34,9 42,25 9,15 8,34 -1,48 -2,3 -194,321 -209,858 -1,26 -22,46 -48,46z"/>
 </g>
</svg>
