<?xml version="1.0" encoding="UTF-8"?>
<!DOCTYPE svg PUBLIC "-//W3C//DTD SVG 1.1//EN" "http://www.w3.org/Graphics/SVG/1.1/DTD/svg11.dtd">
<!-- Creator: CorelDRAW X6 -->
<svg xmlns="http://www.w3.org/2000/svg" xml:space="preserve" width="9.3599mm" height="5.946mm" version="1.1" style="shape-rendering:geometricPrecision; text-rendering:geometricPrecision; image-rendering:optimizeQuality; fill-rule:evenodd; clip-rule:evenodd"
viewBox="0 0 551 350"
 xmlns:xlink="http://www.w3.org/1999/xlink">
 <defs>
  <style type="text/css">
   <![CDATA[
    .fil0 {fill:#D9DDE4;fill-rule:nonzero}
   ]]>
  </style>
 </defs>
 <g id="Слой_x0020_1">
  <metadata id="CorelCorpID_0Corel-Layer"/>
  <path class="fil0" d="M491 144l0 -61 -44 0 0 61 -62 0 0 43 62 0 0 63 44 0 0 -63 60 0 0 -43 -60 0zm-316 -3l0 69c0,0 67,0 95,0 -15,45 -38,69 -95,69 -57,0 -102,-46 -102,-104 0,-57 45,-104 102,-104 30,0 50,11 68,26 15,-15 13,-17 50,-51 -31,-29 -73,-46 -118,-46 -97,0 -175,78 -175,175 0,97 78,175 175,175 145,0 180,-126 168,-209l-168 0z"/>
 </g>
</svg>
