<?xml version="1.0" encoding="UTF-8"?>
<!DOCTYPE svg PUBLIC "-//W3C//DTD SVG 1.1//EN" "http://www.w3.org/Graphics/SVG/1.1/DTD/svg11.dtd">
<!-- Creator: CorelDRAW X6 -->
<svg xmlns="http://www.w3.org/2000/svg" xml:space="preserve" width="18.9993mm" height="18.9883mm" version="1.1" style="shape-rendering:geometricPrecision; text-rendering:geometricPrecision; image-rendering:optimizeQuality; fill-rule:evenodd; clip-rule:evenodd"
viewBox="0 0 2525 2523"
 xmlns:xlink="http://www.w3.org/1999/xlink">
 <defs>
  <style type="text/css">
   <![CDATA[
    .fil0 {fill:white;fill-rule:nonzero}
   ]]>
  </style>
 </defs>
 <g id="Слой_x0020_1">
  <metadata id="CorelCorpID_0Corel-Layer"/>
  <path class="fil0" d="M1140 1755l538 -923 -923 537 385 386zm720 -1057c0,8 -2,17 -6,24l-662 1136c-7,13 -20,21 -35,23 -15,2 -30,-3 -41,-13l-474 -475c-11,-10 -16,-25 -14,-40 2,-15 11,-28 24,-36l1131 -658c8,-6 18,-10 29,-10 26,0 48,22 48,48l0 1z"/>
  <path class="fil0" d="M938 2250c0,51 17,95 49,127 80,80 227,62 328,-39 57,-57 89,-130 89,-201 0,-51 -17,-95 -49,-127 -37,-37 -91,-54 -151,-48 -64,6 -126,38 -177,88 -56,57 -89,129 -89,200zm563 -113c0,96 -43,194 -118,269 -139,139 -347,157 -464,40 -50,-50 -78,-120 -78,-196 0,-96 43,-194 118,-269 66,-66 150,-107 235,-115 90,-9 171,18 229,76 50,50 78,119 78,195z"/>
  <path class="fil0" d="M97 1409c0,51 17,95 49,127 79,79 226,61 328,-40 56,-56 89,-129 89,-200 0,-51 -17,-95 -50,-127 -37,-37 -90,-54 -150,-48 -64,6 -127,37 -177,88 -57,56 -89,129 -89,200zm563 -113c0,96 -43,194 -118,269 -139,139 -347,156 -464,39 -50,-50 -78,-119 -78,-195 0,-96 43,-194 118,-269 66,-66 149,-107 235,-116 90,-9 171,18 229,76 50,50 78,120 78,196z"/>
  <path class="fil0" d="M755 1389c0,12 -5,25 -15,34 -19,19 -49,19 -68,0l-91 -91c-19,-19 -19,-50 0,-68 18,-19 49,-19 68,0l91 91c10,9 15,22 15,34z"/>
  <path class="fil0" d="M1260 1895c0,12 -5,24 -14,34 -19,19 -50,19 -68,0l-82 -82c-19,-19 -19,-49 0,-68 19,-19 50,-19 68,0l82 81c9,10 14,22 14,35z"/>
  <path class="fil0" d="M2518 48c0,13 -5,26 -15,36l-772 722c-19,18 -50,17 -68,-2 -19,-20 -18,-50 2,-69l772 -722c19,-18 50,-17 68,2 9,10 13,22 13,33z"/>
  <path class="fil0" d="M2525 55c0,12 -5,24 -14,33l-726 767c-19,19 -50,20 -69,2 -19,-19 -20,-50 -2,-69l727 -766c18,-20 49,-21 69,-2 10,9 15,22 15,35z"/>
 </g>
</svg>
