<?xml version="1.0" encoding="UTF-8"?>
<!DOCTYPE svg PUBLIC "-//W3C//DTD SVG 1.1//EN" "http://www.w3.org/Graphics/SVG/1.1/DTD/svg11.dtd">
<!-- Creator: CorelDRAW X6 -->
<svg xmlns="http://www.w3.org/2000/svg" xml:space="preserve" width="18.9993mm" height="18.9883mm" version="1.1" style="shape-rendering:geometricPrecision; text-rendering:geometricPrecision; image-rendering:optimizeQuality; fill-rule:evenodd; clip-rule:evenodd"
viewBox="0 0 564 564"
 xmlns:xlink="http://www.w3.org/1999/xlink">
 <defs>
  <style type="text/css">
   <![CDATA[
    .fil0 {fill:#13A99F;fill-rule:nonzero}
   ]]>
  </style>
 </defs>
 <g id="Слой_x0020_1">
  <metadata id="CorelCorpID_0Corel-Layer"/>
  <path class="fil0" d="M255 392l120 -206 -206 120 86 86zm160 -236c0,2 0,4 -1,5l-148 254c-1,3 -4,5 -8,5 -3,1 -6,-1 -9,-3l-106 -106c-2,-2 -3,-6 -3,-9 1,-3 3,-6 6,-8l252 -147c2,-1 4,-2 7,-2 6,0 10,5 10,11l0 0z"/>
  <path class="fil0" d="M210 503c0,11 3,21 11,28 17,18 50,14 73,-9 12,-13 20,-29 20,-45 0,-11 -4,-21 -11,-28 -9,-8 -21,-12 -34,-11 -14,2 -28,9 -40,20 -12,12 -19,29 -19,45zm125 -26c0,22 -9,44 -26,60 -31,31 -78,35 -104,9 -11,-11 -17,-26 -17,-43 0,-22 9,-44 26,-60 15,-15 34,-24 53,-26 20,-2 38,4 51,17 11,11 17,26 17,43z"/>
  <path class="fil0" d="M22 315c0,11 3,21 11,28 17,18 50,14 73,-9 12,-12 20,-29 20,-45 0,-11 -4,-21 -11,-28 -9,-8 -21,-12 -34,-11 -14,2 -28,9 -39,20 -13,13 -20,29 -20,45zm125 -26c0,22 -9,44 -26,60 -31,31 -78,35 -104,9 -11,-11 -17,-26 -17,-43 0,-22 10,-44 26,-60 15,-15 34,-24 53,-26 20,-2 38,4 51,17 11,11 17,26 17,43z"/>
  <path class="fil0" d="M169 310c0,3 -2,6 -4,8 -4,4 -11,4 -15,0l-20 -21c-5,-4 -5,-11 0,-15 4,-4 11,-4 15,0l20 21c2,2 4,4 4,7z"/>
  <path class="fil0" d="M281 423c0,3 -1,6 -3,8 -4,4 -11,4 -15,0l-18 -18c-4,-5 -4,-11 0,-16 4,-4 11,-4 15,0l18 19c2,2 3,4 3,7z"/>
  <path class="fil0" d="M562 11c0,3 -1,6 -3,8l-172 161c-5,4 -12,4 -16,-1 -4,-4 -3,-11 1,-15l172 -161c5,-4 11,-4 15,0 2,3 3,5 3,8z"/>
  <path class="fil0" d="M564 12c0,3 -1,6 -3,8l-162 171c-5,4 -11,4 -16,0 -4,-4 -4,-11 0,-15l162 -171c4,-5 11,-5 15,-1 3,3 4,5 4,8z"/>
 </g>
</svg>
