<?xml version="1.0" encoding="UTF-8"?>
<!DOCTYPE svg PUBLIC "-//W3C//DTD SVG 1.1//EN" "http://www.w3.org/Graphics/SVG/1.1/DTD/svg11.dtd">
<!-- Creator: CorelDRAW X6 -->
<svg xmlns="http://www.w3.org/2000/svg" xml:space="preserve" width="7.0382mm" height="7.0383mm" version="1.1" style="shape-rendering:geometricPrecision; text-rendering:geometricPrecision; image-rendering:optimizeQuality; fill-rule:evenodd; clip-rule:evenodd"
viewBox="0 0 126 126"
 xmlns:xlink="http://www.w3.org/1999/xlink">
 <defs>
  <style type="text/css">
   <![CDATA[
    .fil0 {fill:#D9DDE4;fill-rule:nonzero}
   ]]>
  </style>
 </defs>
 <g id="Слой_x0020_1">
  <metadata id="CorelCorpID_0Corel-Layer"/>
  <path class="fil0" d="M114 102c0,6 -6,12 -12,12l-78 0c-6,0 -12,-6 -12,-12l0 -52 19 0c-1,4 -2,9 -2,13 0,19 15,35 34,35 19,0 35,-16 35,-35 0,-4 -1,-9 -3,-13l19 0 0 52zm-69 -52c4,-5 11,-9 18,-9 8,0 14,4 18,9 3,4 4,8 4,13 0,12 -10,22 -22,22 -12,0 -22,-10 -22,-22 0,-5 1,-9 4,-13zm64 -35l3 0 0 2 0 19 -22 0 0 -21 19 0zm-7 -15l-78 0c-13,0 -24,11 -24,24l0 26 0 52c0,13 11,24 24,24l78 0c13,0 24,-11 24,-24l0 -52 0 -26c0,-13 -11,-24 -24,-24z"/>
 </g>
</svg>
