<?xml version="1.0" encoding="UTF-8"?>
<!DOCTYPE svg PUBLIC "-//W3C//DTD SVG 1.1//EN" "http://www.w3.org/Graphics/SVG/1.1/DTD/svg11.dtd">
<!-- Creator: CorelDRAW X6 -->
<svg xmlns="http://www.w3.org/2000/svg" xml:space="preserve" width="17.7602mm" height="16.4677mm" version="1.1" style="shape-rendering:geometricPrecision; text-rendering:geometricPrecision; image-rendering:optimizeQuality; fill-rule:evenodd; clip-rule:evenodd"
viewBox="0 0 508 471"
 xmlns:xlink="http://www.w3.org/1999/xlink">
 <defs>
  <style type="text/css">
   <![CDATA[
    .fil0 {fill:#13AA9C;fill-rule:nonzero}
   ]]>
  </style>
 </defs>
 <g id="Слой_x0020_1">
  <metadata id="CorelCorpID_0Corel-Layer"/>
  <path class="fil0" d="M34 20c-8,0 -14,6 -14,14 0,8 6,14 14,14l16 0c6,0 10,5 10,10l0 337c0,31 25,56 56,56 30,0 55,-25 55,-56l0 -337c0,-5 4,-10 10,-10l16 0c8,0 14,-6 14,-14 0,-8 -6,-14 -14,-14l-163 0zm82 451c-42,0 -76,-34 -76,-76l0 -327 -6 0c-19,0 -34,-15 -34,-34 0,-19 15,-34 34,-34l163 0c19,0 34,15 34,34 0,19 -15,34 -34,34l-6 0 0 327c0,42 -34,76 -75,76z"/>
  <path class="fil0" d="M311 20c-8,0 -14,6 -14,14 0,8 6,14 14,14l16 0c5,0 10,5 10,10l0 337c0,31 25,56 55,56 31,0 55,-25 55,-56l0 -337c0,-5 5,-10 10,-10l16 0c8,0 15,-6 15,-14 0,-8 -7,-14 -15,-14l-162 0zm81 451c-41,0 -75,-34 -75,-76l0 -327 -6 0c-19,0 -35,-15 -35,-34 0,-19 16,-34 35,-34l162 0c19,0 35,15 35,34 0,19 -16,34 -35,34l-5 0 0 327c0,42 -34,76 -76,76z"/>
  <path class="fil0" d="M449 194l-111 0c-5,0 -10,-4 -10,-10 0,-5 5,-10 10,-10l111 0c6,0 10,5 10,10 0,6 -4,10 -10,10z"/>
  <path class="fil0" d="M183 194l-133 0c-5,0 -10,-4 -10,-10 0,-5 5,-10 10,-10l133 0c5,0 10,5 10,10 0,6 -5,10 -10,10z"/>
 </g>
</svg>
