<?xml version="1.0" encoding="UTF-8"?>
<!DOCTYPE svg PUBLIC "-//W3C//DTD SVG 1.1//EN" "http://www.w3.org/Graphics/SVG/1.1/DTD/svg11.dtd">
<!-- Creator: CorelDRAW X6 -->
<svg xmlns="http://www.w3.org/2000/svg" xml:space="preserve" width="17.7603mm" height="16.4677mm" version="1.1" style="shape-rendering:geometricPrecision; text-rendering:geometricPrecision; image-rendering:optimizeQuality; fill-rule:evenodd; clip-rule:evenodd"
viewBox="0 0 1948 1806"
 xmlns:xlink="http://www.w3.org/1999/xlink">
 <defs>
  <style type="text/css">
   <![CDATA[
    .fil0 {fill:white;fill-rule:nonzero}
   ]]>
  </style>
 </defs>
 <g id="Слой_x0020_1">
  <metadata id="CorelCorpID_0Corel-Layer"/>
  <path class="fil0" d="M131 77c-29,0 -54,25 -54,54 0,30 25,55 54,55l62 0c21,0 39,17 39,38l0 1293c0,117 95,212 212,212 117,0 212,-95 212,-212l0 -1293c0,-21 17,-38 38,-38l62 0c30,0 54,-25 54,-55 0,-29 -24,-54 -54,-54l-625 0zm313 1729c-160,0 -290,-129 -290,-289l0 -1254 -23 0c-72,0 -131,-59 -131,-132 0,-72 59,-131 131,-131l625 0c72,0 131,59 131,131 0,73 -59,132 -131,132l-23 0 0 1254c0,160 -130,289 -289,289z"/>
  <path class="fil0" d="M1192 77c-30,0 -54,25 -54,54 0,30 24,55 54,55l62 0c21,0 38,17 38,38l0 1293c0,117 96,212 213,212 117,0 212,-95 212,-212l0 -1293c0,-21 17,-38 38,-38l62 0c30,0 54,-25 54,-55 0,-29 -24,-54 -54,-54l-625 0zm313 1729c-160,0 -290,-129 -290,-289l0 -1254 -23 0c-72,0 -131,-59 -131,-132 0,-72 59,-131 131,-131l625 0c72,0 131,59 131,131 0,73 -59,132 -131,132l-23 0 0 1254c0,160 -130,289 -289,289z"/>
  <path class="fil0" d="M1723 746l-424 0c-21,0 -39,-18 -39,-39 0,-21 18,-39 39,-39l424 0c22,0 39,18 39,39 0,21 -17,39 -39,39z"/>
  <path class="fil0" d="M701 746l-508 0c-21,0 -39,-18 -39,-39 0,-21 18,-39 39,-39l508 0c21,0 38,18 38,39 0,21 -17,39 -38,39z"/>
 </g>
</svg>
