<?xml version="1.0" encoding="UTF-8"?>
<!DOCTYPE svg PUBLIC "-//W3C//DTD SVG 1.1//EN" "http://www.w3.org/Graphics/SVG/1.1/DTD/svg11.dtd">
<!-- Creator: CorelDRAW X6 -->
<svg xmlns="http://www.w3.org/2000/svg" xml:space="preserve" width="69.4529mm" height="18.7751mm" version="1.1" style="shape-rendering:geometricPrecision; text-rendering:geometricPrecision; image-rendering:optimizeQuality; fill-rule:evenodd; clip-rule:evenodd"
viewBox="0 0 7127 1927"
 xmlns:xlink="http://www.w3.org/1999/xlink">
 <defs>
  <style type="text/css">
   <![CDATA[
    .fil4 {fill:#008D93;fill-rule:nonzero}
    .fil7 {fill:#00964D;fill-rule:nonzero}
    .fil5 {fill:#009C60;fill-rule:nonzero}
    .fil3 {fill:#00A69C;fill-rule:nonzero}
    .fil8 {fill:#00A750;fill-rule:nonzero}
    .fil0 {fill:#191A1A;fill-rule:nonzero}
    .fil1 {fill:#26A9E0;fill-rule:nonzero}
    .fil2 {fill:#29B473;fill-rule:nonzero}
    .fil6 {fill:#37B34A;fill-rule:nonzero}
   ]]>
  </style>
 </defs>
 <g id="Слой_x0020_1">
  <metadata id="CorelCorpID_0Corel-Layer"/>
  <polygon class="fil0" points="2430,490 2490,490 2490,620 2515,601 2598,490 2640,490 2554,600 2659,771 2584,771 2508,645 2490,658 2490,771 2430,771 "/>
  <path class="fil0" d="M2858 771l-58 0 0 -185 -39 0c-2,108 -25,190 -78,190 -4,0 -8,0 -12,-1l3 -35c1,1 3,1 5,1 37,0 50,-74 50,-186l129 0 0 216z"/>
  <polygon class="fil0" points="3097,555 3097,771 3040,771 3040,620 2955,771 2910,771 2910,555 2968,555 2968,697 3047,555 "/>
  <polygon class="fil0" points="3149,555 3207,555 3207,645 3274,645 3274,555 3332,555 3332,771 3274,771 3274,675 3207,675 3207,771 3149,771 "/>
  <polygon class="fil0" points="3571,555 3571,771 3513,771 3513,620 3429,771 3383,771 3383,555 3441,555 3441,697 3520,555 "/>
  <polygon class="fil0" points="3623,555 3680,555 3680,645 3707,631 3756,555 3789,555 3738,636 3805,771 3740,771 3694,669 3680,675 3680,771 3623,771 "/>
  <path class="fil0" d="M3941 666c-36,4 -59,16 -59,46 0,24 10,35 26,35 23,0 33,-24 33,-24l0 -57zm-93 -99c0,0 33,-17 67,-17 51,0 84,17 84,76l0 98c0,18 4,23 9,23 5,0 14,-3 14,-3l2 23c0,0 -30,9 -48,9 -17,0 -25,-8 -29,-27l-2 0c0,0 -12,27 -56,27 -40,0 -67,-21 -67,-57 0,-57 73,-72 119,-76l0 -12c0,-41 -11,-52 -36,-52 -20,0 -52,16 -52,16l-5 -28z"/>
  <path class="fil0" d="M4211 741l69 0 0 -156 -51 0c-1,58 -3,109 -18,156zm151 95l-28 0 -10 -65 -133 0 -13 65 -28 0 -4 -95 28 0c19,-50 22,-106 22,-186l141 0 0 186 31 0 -6 95z"/>
  <path class="fil0" d="M4447 663c0,62 11,85 39,85 29,0 39,-23 39,-85 0,-62 -10,-84 -39,-84 -28,0 -39,22 -39,84zm39 113c-65,0 -101,-41 -101,-113 0,-72 36,-113 101,-113 66,0 102,41 102,113 0,72 -39,113 -102,113z"/>
  <polygon class="fil0" points="4626,555 4684,555 4684,645 4711,631 4759,555 4793,555 4741,636 4809,771 4744,771 4698,669 4684,675 4684,771 4626,771 "/>
  <polygon class="fil0" points="4938,586 4938,771 4881,771 4881,586 4818,586 4818,555 5000,555 5000,586 "/>
  <path class="fil0" d="M5080 663c0,62 10,85 39,85 28,0 39,-23 39,-85 0,-62 -11,-84 -39,-84 -29,0 -39,22 -39,84zm39 113c-65,0 -101,-41 -101,-113 0,-72 36,-113 101,-113 65,0 101,41 101,113 0,72 -39,113 -101,113z"/>
  <path class="fil0" d="M5316 602l0 127c0,0 10,14 32,14 32,0 46,-20 46,-83 0,-61 -15,-76 -41,-76 -23,0 -36,17 -37,18zm-58 -47l47 0 8 19 1 0c0,0 18,-24 59,-24 51,0 83,43 83,109 0,70 -33,117 -86,117 -38,0 -53,-16 -53,-16l-1 0 0 120 -58 2 0 -327z"/>
  <path class="fil0" d="M5599 666c-36,4 -59,16 -59,46 0,24 11,35 26,35 24,0 33,-24 33,-24l0 -57zm-93 -99c0,0 34,-17 67,-17 51,0 84,17 84,76l0 98c0,18 5,23 9,23 5,0 15,-3 15,-3l2 23c0,0 -30,9 -48,9 -17,0 -26,-8 -29,-27l-2 0c0,0 -12,27 -57,27 -40,0 -67,-21 -67,-57 0,-57 73,-72 119,-76l0 -12c0,-41 -10,-52 -36,-52 -20,0 -51,16 -51,16l-6 -28z"/>
  <path class="fil1" d="M424 0c130,173 253,339 364,489l0 0c0,-489 0,-489 -364,-489z"/>
  <path class="fil1" d="M1138 489l0 299 -350 0 0 -299c63,83 123,164 175,234 52,-70 112,-151 175,-234z"/>
  <path class="fil1" d="M1502 0c-130,173 -253,339 -364,489l0 0c0,-489 0,-489 364,-489z"/>
  <path class="fil2" d="M1502 1927c-130,-174 -253,-339 -364,-489l0 0c0,489 0,489 364,489z"/>
  <path class="fil2" d="M1138 1138l0 299c-63,-83 -123,-163 -175,-234 -52,71 -112,151 -175,234l0 -299 350 0z"/>
  <path class="fil2" d="M424 1927c130,-174 253,-339 364,-489l0 0c0,489 0,489 -364,489z"/>
  <path class="fil3" d="M1927 424c-174,130 -339,253 -489,364l0 0c489,0 489,0 489,-364z"/>
  <polygon class="fil4" points="1138,963 963,963 963,788 1138,788 "/>
  <polygon class="fil5" points="1138,1138 963,1138 963,963 1138,963 "/>
  <path class="fil3" d="M1203 963c71,52 151,112 235,175l-300 0 0 -350 300 0c-84,63 -164,123 -235,175z"/>
  <path class="fil3" d="M1927 1502c-174,-130 -339,-253 -489,-364l0 0c489,0 489,0 489,364z"/>
  <path class="fil6" d="M0 1502c173,-130 339,-253 489,-364l0 0c-489,0 -489,0 -489,364z"/>
  <polygon class="fil7" points="963,963 788,963 788,788 963,788 "/>
  <polygon class="fil8" points="963,1138 788,1138 788,963 963,963 "/>
  <path class="fil6" d="M788 788l0 350 -299 0c83,-63 164,-123 234,-175 -70,-52 -151,-112 -234,-175l299 0z"/>
  <path class="fil6" d="M0 424c173,130 339,253 489,364l0 0c-489,0 -489,0 -489,-364z"/>
  <polygon class="fil0" points="2970,1460 2864,1460 2858,1075 2856,1075 2714,1460 2633,1460 2492,1075 2489,1075 2487,1460 2420,1460 2426,951 2557,951 2699,1326 2702,1326 2843,951 2964,951 "/>
  <polygon class="fil0" points="3469,1460 3153,1460 3153,951 3458,951 3458,1007 3261,1007 3261,1175 3435,1175 3435,1230 3261,1230 3261,1404 3469,1404 "/>
  <path class="fil0" d="M3759 1007c-2,209 -22,313 -59,397l182 0 0 -397 -123 0zm231 -56l0 453 63 0 -19 193 -61 0 -17 -137 -279 0 -31 137 -54 0 -9 -193 53 0c43,-90 60,-203 60,-453l294 0z"/>
  <path class="fil0" d="M4302 1224l0 185 49 0c54,0 91,-30 91,-99 0,-65 -30,-86 -70,-86l-70 0zm64 -47c23,0 58,-19 58,-87 0,-65 -35,-88 -78,-88l-44 0 0 175 64 0zm-172 -226l155 0c126,0 180,65 180,132 0,57 -37,92 -76,112 57,17 98,57 98,119 0,86 -65,146 -198,146l-159 0 0 -509z"/>
  <polygon class="fil0" points="5019,1460 4702,1460 4702,951 5008,951 5008,1007 4810,1007 4810,1175 4984,1175 4984,1230 4810,1230 4810,1404 5019,1404 "/>
  <path class="fil0" d="M5309 1007c-2,209 -22,313 -59,397l181 0 0 -397 -122 0zm230 -56l0 453 64 0 -19 193 -61 0 -17 -137 -279 0 -32 137 -54 0 -8 -193 52 0c43,-90 61,-203 61,-453l293 0z"/>
  <polygon class="fil0" points="6060,1460 5744,1460 5744,951 6049,951 6049,1007 5852,1007 5852,1175 6026,1175 6026,1230 5852,1230 5852,1404 6060,1404 "/>
  <path class="fil0" d="M6325 1224l0 185 48 0c55,0 91,-30 91,-99 0,-65 -30,-86 -70,-86l-69 0zm64 -47c23,0 57,-19 57,-87 0,-65 -34,-88 -77,-88l-44 0 0 175 64 0zm-172 -226l155 0c126,0 180,65 180,132 0,57 -38,92 -76,112 56,17 98,57 98,119 0,86 -65,146 -198,146l-159 0 0 -509z"/>
  <path class="fil0" d="M6882 1028l-75 240 146 0 -69 -240 -2 0zm86 -77l159 509 -115 0 -44 -143 -177 0 -46 143 -66 0 170 -509 119 0z"/>
 </g>
</svg>
