<?xml version="1.0" encoding="UTF-8"?>
<!DOCTYPE svg PUBLIC "-//W3C//DTD SVG 1.1//EN" "http://www.w3.org/Graphics/SVG/1.1/DTD/svg11.dtd">
<!-- Creator: CorelDRAW X6 -->
<svg xmlns="http://www.w3.org/2000/svg" xml:space="preserve" width="14.6806mm" height="17.9501mm" version="1.1" style="shape-rendering:geometricPrecision; text-rendering:geometricPrecision; image-rendering:optimizeQuality; fill-rule:evenodd; clip-rule:evenodd"
viewBox="0 0 1192 1458"
 xmlns:xlink="http://www.w3.org/1999/xlink">
 <defs>
  <style type="text/css">
   <![CDATA[
    .fil0 {fill:white;fill-rule:nonzero}
   ]]>
  </style>
 </defs>
 <g id="Слой_x0020_1">
  <metadata id="CorelCorpID_0Corel-Layer"/>
  <path class="fil0" d="M381 1458c-17,0 -32,-13 -33,-31 -1,-25 -1,-52 -2,-81 -1,-68 -3,-145 -14,-232 -6,-51 -29,-62 -85,-83 -41,-16 -93,-36 -140,-87 -106,-115 -107,-278 -107,-285 0,-11 6,-21 15,-27 121,-76 229,-191 321,-341 45,-76 117,-215 122,-262 1,-17 17,-31 35,-29 18,2 31,18 29,35 -7,77 -118,268 -130,290 -94,152 -203,270 -326,351 3,41 18,148 89,224 37,40 77,55 116,70 56,22 114,44 125,136 12,91 14,169 15,239 0,28 1,55 2,79 1,18 -13,33 -31,34 0,0 -1,0 -1,0z"/>
  <path class="fil0" d="M1154 1431c-14,0 -27,-10 -31,-24 -165,-599 -1,-1285 6,-1314 4,-17 21,-28 39,-24 17,4 28,22 24,39 -2,7 -167,699 -6,1282 4,17 -6,35 -23,40 -3,0 -6,1 -9,1z"/>
  <path class="fil0" d="M424 1070c-72,0 -134,-23 -137,-24 -17,-6 -26,-25 -19,-42 6,-17 25,-25 41,-19 3,1 106,39 186,9 16,-6 35,2 41,19 7,17 -2,35 -19,42 -30,11 -63,15 -93,15z"/>
  <path class="fil0" d="M57 797c-18,0 -32,-14 -32,-32 0,-18 14,-33 32,-33 42,0 71,-10 86,-32 26,-36 13,-102 5,-124 -6,-17 3,-35 20,-41 17,-6 35,3 41,20 2,4 38,111 -13,183 -28,39 -75,59 -139,59z"/>
 </g>
</svg>
