<?xml version="1.0" encoding="UTF-8"?>
<!DOCTYPE svg PUBLIC "-//W3C//DTD SVG 1.1//EN" "http://www.w3.org/Graphics/SVG/1.1/DTD/svg11.dtd">
<!-- Creator: CorelDRAW X6 -->
<svg xmlns="http://www.w3.org/2000/svg" xml:space="preserve" width="14.6806mm" height="17.9501mm" version="1.1" style="shape-rendering:geometricPrecision; text-rendering:geometricPrecision; image-rendering:optimizeQuality; fill-rule:evenodd; clip-rule:evenodd"
viewBox="0 0 358 437"
 xmlns:xlink="http://www.w3.org/1999/xlink">
 <defs>
  <style type="text/css">
   <![CDATA[
    .fil0 {fill:#13A99F;fill-rule:nonzero}
   ]]>
  </style>
 </defs>
 <g id="Слой_x0020_1">
  <metadata id="CorelCorpID_0Corel-Layer"/>
  <path class="fil0" d="M114 437c-5,0 -9,-4 -9,-9 -1,-7 -1,-16 -1,-24 -1,-21 -1,-44 -4,-70 -2,-15 -9,-18 -26,-25 -12,-5 -28,-11 -42,-26 -32,-34 -32,-83 -32,-85 0,-4 2,-7 5,-8 36,-23 68,-58 96,-103 13,-22 35,-64 36,-78 1,-6 6,-9 11,-9 5,1 9,5 9,11 -3,23 -36,80 -39,86 -29,46 -61,81 -98,106 1,12 5,44 26,67 12,12 24,17 35,21 17,7 34,13 38,41 3,27 4,51 4,71 0,9 1,17 1,24 0,6 -4,10 -9,10 0,0 -1,0 -1,0z"/>
  <path class="fil0" d="M346 429c-4,0 -8,-3 -9,-7 -50,-180 -1,-385 2,-394 1,-5 6,-9 11,-7 6,1 9,6 7,11 0,3 -50,210 -1,385 1,5 -2,10 -7,12 -1,0 -2,0 -3,0z"/>
  <path class="fil0" d="M127 321c-21,0 -40,-7 -41,-7 -5,-2 -8,-8 -6,-13 2,-5 8,-7 13,-5 0,0 31,11 55,2 5,-2 11,1 13,6 2,5 -1,11 -6,12 -9,4 -19,5 -28,5z"/>
  <path class="fil0" d="M17 239c-5,0 -10,-4 -10,-10 0,-5 5,-9 10,-9 13,0 21,-4 26,-10 8,-11 4,-31 1,-37 -1,-5 1,-11 6,-12 5,-2 11,0 13,5 0,2 11,34 -4,55 -9,12 -23,18 -42,18z"/>
 </g>
</svg>
