<?xml version="1.0" encoding="UTF-8"?>
<!DOCTYPE svg PUBLIC "-//W3C//DTD SVG 1.1//EN" "http://www.w3.org/Graphics/SVG/1.1/DTD/svg11.dtd">
<!-- Creator: CorelDRAW X6 -->
<svg xmlns="http://www.w3.org/2000/svg" xml:space="preserve" width="16.9919mm" height="16.9919mm" version="1.1" style="shape-rendering:geometricPrecision; text-rendering:geometricPrecision; image-rendering:optimizeQuality; fill-rule:evenodd; clip-rule:evenodd"
viewBox="0 0 1810 1810"
 xmlns:xlink="http://www.w3.org/1999/xlink">
 <defs>
  <style type="text/css">
   <![CDATA[
    .fil0 {fill:white;fill-rule:nonzero}
   ]]>
  </style>
 </defs>
 <g id="Слой_x0020_1">
  <metadata id="CorelCorpID_0Corel-Layer"/>
  <path class="fil0" d="M1720 905c0,449 -366,815 -815,815 -449,0 -814,-366 -814,-815 0,-449 365,-814 814,-814 449,0 815,365 815,814zm90 0c0,-499 -406,-905 -905,-905 -499,0 -905,406 -905,905 0,499 406,905 905,905 499,0 905,-406 905,-905zm-590 68c38,0 68,-30 68,-68 0,-37 -30,-68 -68,-68 -37,0 -67,31 -67,68 0,38 30,68 67,68zm-301 0c38,0 68,-30 68,-68 0,-37 -30,-68 -68,-68 -37,0 -67,31 -67,68 0,38 30,68 67,68zm-397 -68c0,-37 30,-68 68,-68 37,0 68,31 68,68 0,38 -31,68 -68,68 -38,0 -68,-30 -68,-68z"/>
 </g>
</svg>
