<?xml version="1.0" encoding="UTF-8"?>
<!DOCTYPE svg PUBLIC "-//W3C//DTD SVG 1.1//EN" "http://www.w3.org/Graphics/SVG/1.1/DTD/svg11.dtd">
<!-- Creator: CorelDRAW X6 -->
<svg xmlns="http://www.w3.org/2000/svg" xml:space="preserve" width="16.9919mm" height="16.9919mm" version="1.1" style="shape-rendering:geometricPrecision; text-rendering:geometricPrecision; image-rendering:optimizeQuality; fill-rule:evenodd; clip-rule:evenodd"
viewBox="0 0 468 468"
 xmlns:xlink="http://www.w3.org/1999/xlink">
 <defs>
  <style type="text/css">
   <![CDATA[
    .fil0 {fill:#13AA9C;fill-rule:nonzero}
   ]]>
  </style>
 </defs>
 <g id="Слой_x0020_1">
  <metadata id="CorelCorpID_0Corel-Layer"/>
  <path class="fil0" d="M445 234c0,116 -95,211 -211,211 -116,0 -211,-95 -211,-211 0,-116 95,-211 211,-211 116,0 211,95 211,211zm23 0c0,-129 -105,-234 -234,-234 -129,0 -234,105 -234,234 0,129 105,234 234,234 129,0 234,-105 234,-234zm-152 18c9,0 17,-8 17,-18 0,-10 -8,-17 -17,-17 -10,0 -18,7 -18,17 0,10 8,18 18,18zm-78 0c10,0 17,-8 17,-18 0,-10 -7,-17 -17,-17 -10,0 -18,7 -18,17 0,10 8,18 18,18zm-103 -18c0,-10 8,-17 18,-17 9,0 17,7 17,17 0,10 -8,18 -17,18 -10,0 -18,-8 -18,-18z"/>
 </g>
</svg>
