<?xml version="1.0" encoding="UTF-8"?>
<!DOCTYPE svg PUBLIC "-//W3C//DTD SVG 1.1//EN" "http://www.w3.org/Graphics/SVG/1.1/DTD/svg11.dtd">
<!-- Creator: CorelDRAW X6 -->
<svg xmlns="http://www.w3.org/2000/svg" xml:space="preserve" width="8.1886mm" height="8.1817mm" version="1.1" style="shape-rendering:geometricPrecision; text-rendering:geometricPrecision; image-rendering:optimizeQuality; fill-rule:evenodd; clip-rule:evenodd"
viewBox="0 0 198 198"
 xmlns:xlink="http://www.w3.org/1999/xlink">
 <defs>
  <style type="text/css">
   <![CDATA[
    .fil0 {fill:#13A99F;fill-rule:nonzero}
   ]]>
  </style>
 </defs>
 <g id="Слой_x0020_1">
  <metadata id="CorelCorpID_0Corel-Layer"/>
  <path class="fil0" d="M77 48c3,-3 5,-8 5,-12 0,-5 -2,-9 -5,-13l-19 -18c-6,-7 -18,-7 -24,0l-5 5 43 43 5 -5z"/>
  <path class="fil0" d="M145 126l43 43 5 -5c3,-3 5,-8 5,-12 0,-5 -2,-9 -5,-13l-19 -18c-6,-7 -18,-7 -24,0l-5 5z"/>
  <path class="fil0" d="M48 150c39,39 70,48 88,48 21,0 33,-10 36,-13l4 -4 -43 -43 -7 7c-3,2 -6,2 -9,0l-65 -65c-1,-1 -1,-2 -1,-4 0,-1 0,-3 1,-4l8 -7 -43 -43 -4 4c-2,2 -44,45 35,124z"/>
 </g>
</svg>
