<?xml version="1.0" encoding="UTF-8"?>
<!DOCTYPE svg PUBLIC "-//W3C//DTD SVG 1.1//EN" "http://www.w3.org/Graphics/SVG/1.1/DTD/svg11.dtd">
<!-- Creator: CorelDRAW X6 -->
<svg xmlns="http://www.w3.org/2000/svg" xml:space="preserve" width="20.3731mm" height="15.0308mm" version="1.1" style="shape-rendering:geometricPrecision; text-rendering:geometricPrecision; image-rendering:optimizeQuality; fill-rule:evenodd; clip-rule:evenodd"
viewBox="0 0 3238 2389"
 xmlns:xlink="http://www.w3.org/1999/xlink">
 <defs>
  <style type="text/css">
   <![CDATA[
    .str0 {stroke:white;stroke-width:112.154;stroke-linejoin:round}
    .fil0 {fill:none;fill-rule:nonzero}
   ]]>
  </style>
 </defs>
 <g id="Слой_x0020_1">
  <metadata id="CorelCorpID_0Corel-Layer"/>
  <path class="fil0 str0" d="M1607 2229c-1177,-1136 0,-2173 0,-2173l38 0c0,0 1177,1037 0,2173l-38 0z"/>
  <path class="fil0 str0" d="M1650 2285c0,0 1448,-449 976,-1841 0,0 -357,-3 -545,258"/>
  <path class="fil0 str0" d="M1599 2285c0,0 -1448,-449 -976,-1841 0,0 357,-3 545,258"/>
  <path class="fil0 str0" d="M533 1219c-298,-34 -477,108 -477,108 262,1332 1556,958 1556,958l14 0c0,0 1294,374 1556,-958 0,0 -179,-142 -477,-108"/>
 </g>
</svg>
