<?xml version="1.0" encoding="UTF-8"?>
<!DOCTYPE svg PUBLIC "-//W3C//DTD SVG 1.1//EN" "http://www.w3.org/Graphics/SVG/1.1/DTD/svg11.dtd">
<!-- Creator: CorelDRAW X6 -->
<svg xmlns="http://www.w3.org/2000/svg" xml:space="preserve" width="13.4955mm" height="16.7898mm" version="1.1" style="shape-rendering:geometricPrecision; text-rendering:geometricPrecision; image-rendering:optimizeQuality; fill-rule:evenodd; clip-rule:evenodd"
viewBox="0 0 976 1214"
 xmlns:xlink="http://www.w3.org/1999/xlink">
 <defs>
  <style type="text/css">
   <![CDATA[
    .fil0 {fill:white;fill-rule:nonzero}
   ]]>
  </style>
 </defs>
 <g id="Слой_x0020_1">
  <metadata id="CorelCorpID_0Corel-Layer"/>
  <path class="fil0" d="M549 680c-36,0 -65,29 -65,65 0,18 7,35 20,47 5,4 7,10 8,16 7,173 33,309 52,350 19,-37 47,-152 56,-290 1,-9 8,-17 17,-20 15,-5 28,-14 36,-27 5,-6 12,-10 20,-10 7,0 15,4 19,10 13,19 35,30 57,30 39,0 70,-31 70,-70 0,-5 0,-11 -2,-17 -3,-11 3,-22 13,-27 24,-11 40,-36 40,-63 0,-24 -12,-47 -33,-59 -7,-5 -11,-12 -11,-20 0,-8 4,-16 11,-20 21,-13 33,-35 33,-60 0,-22 -11,-44 -30,-57 -6,-4 -10,-12 -10,-19 0,-8 4,-15 10,-20 19,-13 30,-34 30,-57 0,-7 -1,-14 -3,-21 -4,-11 1,-23 11,-28 19,-10 31,-30 31,-52 0,-21 -12,-41 -31,-51 -7,-4 -12,-11 -12,-19 -1,-8 2,-16 9,-20 14,-12 22,-28 22,-46 0,-32 -26,-59 -58,-59 -23,0 -43,14 -53,35 -3,8 -11,14 -20,14 -8,1 -17,-3 -21,-11 -13,-21 -35,-33 -60,-33 -22,0 -42,10 -56,29 -4,6 -11,9 -19,9 -7,0 -14,-3 -19,-9 -13,-19 -34,-29 -56,-29 -23,0 -44,11 -57,30 -5,6 -12,10 -20,10 -7,0 -15,-4 -19,-10 -13,-19 -35,-30 -57,-30 -20,0 -38,8 -51,22 -6,6 -14,8 -22,7 -8,-2 -14,-8 -17,-15 -9,-23 -30,-38 -55,-38 -27,0 -50,18 -56,44 -2,8 -7,14 -14,17 -7,3 -14,2 -21,-2 -9,-5 -19,-8 -30,-8 -32,0 -58,26 -58,58 0,8 2,16 5,24 5,10 2,22 -7,29 -18,13 -29,34 -29,56 0,18 7,36 19,49 9,8 9,22 1,31 -10,13 -16,29 -16,45 0,39 31,70 70,70 38,0 69,-31 69,-70 0,-18 -7,-35 -19,-48 -9,-9 -9,-22 -1,-32 10,-12 16,-27 16,-43 1,-7 4,-14 9,-18 6,-5 13,-6 20,-5 3,1 7,1 11,1 32,0 58,-26 58,-58 0,-4 0,-8 -1,-12 -2,-9 2,-18 9,-23 1,-1 3,-3 4,-4 6,-5 15,-7 22,-5 8,3 14,9 16,16 9,31 36,52 68,52 22,0 44,-12 57,-31 4,-6 12,-10 19,-10l0 0c8,0 15,4 20,10 13,19 34,31 57,31 22,0 43,-11 56,-29 5,-6 12,-10 19,-10 8,0 15,4 19,10 16,22 42,33 70,27 7,-1 14,1 19,5 5,4 8,11 9,18 0,17 9,34 23,44 5,4 8,11 9,18 0,6 -2,13 -7,18 -14,13 -22,31 -22,50 0,23 12,44 31,57 6,5 10,12 10,20 0,7 -4,15 -10,19 -19,13 -31,35 -31,57 0,25 13,47 34,60 6,4 11,12 11,20 0,8 -5,15 -11,20 -21,12 -34,35 -34,59 0,5 1,11 3,17 3,11 -3,22 -13,27 -11,5 -21,13 -28,24 -4,6 -12,10 -19,10 -8,0 -15,-4 -20,-10 -12,-19 -34,-30 -56,-30 -7,-1 -13,-4 -18,-9 -12,-15 -31,-23 -50,-23zm14 534c-1,0 -3,0 -4,0 -22,-3 -45,-23 -67,-144 -13,-71 -23,-162 -27,-251 -18,-21 -28,-47 -28,-74 0,-62 50,-112 112,-112 30,0 58,11 79,32 24,3 47,13 65,28 3,-3 7,-6 11,-8 0,-4 0,-8 0,-11 0,-30 11,-58 31,-79 -20,-22 -31,-50 -31,-80 0,-28 10,-55 28,-76 -18,-21 -28,-49 -28,-77 0,-24 7,-46 20,-65 -10,-12 -17,-25 -21,-40 -27,0 -52,-10 -73,-27 -21,17 -47,27 -75,27 -29,0 -56,-10 -77,-28 -21,18 -48,28 -76,28 -30,0 -58,-11 -79,-30 -15,37 -51,63 -93,65 -2,12 -7,23 -13,33 13,19 20,42 20,65 0,65 -52,117 -116,117 -65,0 -117,-52 -117,-117 0,-21 6,-41 16,-59 -13,-19 -20,-42 -20,-66 0,-31 13,-61 35,-83 -3,-8 -4,-17 -4,-26 0,-58 47,-105 105,-105 10,0 20,1 29,4 18,-33 53,-55 92,-55 33,0 64,16 84,41 18,-11 39,-17 61,-17 28,0 55,10 76,29 21,-19 48,-29 77,-29 28,0 54,10 75,28 21,-18 48,-28 75,-28 29,0 57,11 78,29 19,-21 47,-33 76,-33 58,0 105,47 105,105 0,22 -7,43 -20,61 20,20 32,47 32,75 0,33 -15,63 -40,83 1,6 1,12 1,18 0,28 -10,56 -29,77 19,21 29,48 29,76 0,30 -11,58 -31,80 20,21 31,49 31,79 0,39 -20,75 -51,96 0,4 0,8 0,11 0,65 -52,117 -117,117 -28,0 -55,-10 -76,-29 -8,7 -17,13 -27,18 -6,73 -18,149 -33,209 -26,104 -49,118 -70,118z"/>
 </g>
</svg>
