<?xml version="1.0" encoding="UTF-8"?>
<!DOCTYPE svg PUBLIC "-//W3C//DTD SVG 1.1//EN" "http://www.w3.org/Graphics/SVG/1.1/DTD/svg11.dtd">
<!-- Creator: CorelDRAW X6 -->
<svg xmlns="http://www.w3.org/2000/svg" xml:space="preserve" width="13.4955mm" height="16.7898mm" version="1.1" style="shape-rendering:geometricPrecision; text-rendering:geometricPrecision; image-rendering:optimizeQuality; fill-rule:evenodd; clip-rule:evenodd"
viewBox="0 0 305 380"
 xmlns:xlink="http://www.w3.org/1999/xlink">
 <defs>
  <style type="text/css">
   <![CDATA[
    .fil0 {fill:#13A99F;fill-rule:nonzero}
   ]]>
  </style>
 </defs>
 <g id="Слой_x0020_1">
  <metadata id="CorelCorpID_0Corel-Layer"/>
  <path class="fil0" d="M172 213c-11,0 -21,9 -21,20 0,6 3,11 7,15 1,1 2,3 2,5 2,54 10,96 16,109 6,-11 15,-47 18,-90 0,-3 2,-6 5,-7 5,-1 9,-4 12,-8 1,-2 3,-3 6,-3 2,0 4,1 6,3 4,6 11,9 18,9 12,0 22,-10 22,-22 0,-1 -1,-3 -1,-5 -1,-3 1,-7 4,-9 7,-3 12,-11 12,-19 0,-8 -3,-15 -10,-19 -2,-1 -3,-3 -3,-6 0,-3 1,-5 3,-6 7,-4 10,-11 10,-19 0,-7 -3,-14 -9,-18 -2,-1 -3,-3 -3,-6 0,-2 1,-4 3,-6 6,-4 9,-11 9,-18 0,-2 0,-4 -1,-6 -1,-4 1,-8 4,-9 6,-3 10,-10 10,-16 0,-7 -4,-13 -10,-16 -2,-2 -4,-4 -4,-6 0,-3 1,-5 3,-7 4,-3 7,-8 7,-14 0,-10 -8,-18 -18,-18 -7,0 -14,4 -17,11 -1,2 -3,4 -6,4 -3,0 -5,-1 -7,-3 -4,-7 -11,-11 -18,-11 -7,0 -14,3 -18,9 -1,2 -4,3 -6,3 -2,0 -4,-1 -6,-3 -4,-6 -10,-9 -17,-9 -8,0 -14,4 -18,10 -2,2 -4,3 -6,3 -3,0 -5,-1 -6,-3 -5,-6 -11,-10 -18,-10 -6,0 -12,3 -16,7 -2,2 -5,3 -7,2 -3,0 -5,-2 -5,-4 -3,-8 -10,-12 -17,-12 -9,0 -16,5 -18,14 -1,2 -2,4 -4,5 -3,1 -5,0 -7,-1 -3,-2 -6,-2 -9,-2 -10,0 -19,8 -19,18 0,2 1,5 2,7 2,3 1,7 -2,9 -6,4 -9,11 -9,18 0,6 2,11 6,15 2,3 3,7 0,10 -3,4 -5,9 -5,14 0,12 10,22 22,22 12,0 22,-10 22,-22 0,-6 -3,-11 -7,-15 -2,-3 -2,-7 0,-10 3,-4 5,-9 5,-14 0,-2 1,-4 3,-5 2,-2 4,-2 6,-2 1,1 3,1 4,1 10,0 18,-8 18,-18 0,-2 0,-3 0,-4 -1,-3 0,-6 2,-8 1,0 1,0 2,-1 2,-1 4,-2 7,-1 2,1 4,2 5,5 2,9 11,16 21,16 7,0 13,-4 18,-10 1,-2 3,-3 6,-3l0 0c2,0 4,1 6,3 4,6 10,10 18,10 7,0 13,-3 17,-9 2,-2 4,-3 6,-3 2,0 5,1 6,3 5,7 13,10 22,8 2,0 4,1 6,2 1,1 2,3 3,5 0,6 2,11 7,14 1,2 2,4 3,6 0,2 -1,4 -3,6 -4,4 -6,9 -6,15 0,7 3,14 9,18 2,2 3,4 3,6 0,3 -1,5 -3,6 -6,4 -9,11 -9,18 0,8 4,15 10,19 2,1 4,3 4,6 0,3 -2,5 -4,6 -6,4 -10,11 -10,19 0,1 0,3 0,5 1,4 0,7 -4,9 -3,1 -6,4 -8,7 -2,2 -4,3 -6,3 -3,0 -5,-1 -6,-3 -4,-6 -11,-9 -18,-9 -2,-1 -4,-1 -6,-3 -4,-5 -9,-7 -15,-7zm4 167c0,0 -1,0 -1,0 -7,-1 -14,-7 -21,-45 -4,-23 -7,-51 -8,-79 -6,-6 -9,-14 -9,-23 0,-19 15,-35 35,-35 9,0 18,4 24,10 8,1 15,4 21,9 1,-1 2,-2 3,-3 0,-1 0,-2 0,-3 0,-10 4,-18 10,-25 -6,-7 -10,-15 -10,-25 0,-9 3,-17 9,-24 -6,-6 -9,-15 -9,-24 0,-7 2,-14 6,-20 -3,-4 -5,-8 -6,-12 -8,-1 -17,-4 -23,-9 -6,5 -15,9 -23,9 -9,0 -18,-4 -24,-9 -7,5 -16,9 -24,9 -10,0 -18,-4 -25,-10 -5,12 -16,20 -29,20 -1,4 -2,7 -4,11 4,6 6,13 6,20 0,20 -16,37 -36,37 -20,0 -37,-17 -37,-37 0,-6 2,-13 5,-19 -4,-6 -6,-13 -6,-20 0,-10 4,-19 11,-26 -1,-3 -1,-5 -1,-8 0,-18 15,-33 33,-33 3,0 6,0 9,1 5,-10 16,-17 29,-17 10,0 19,5 26,13 5,-4 12,-5 19,-5 8,0 17,3 24,9 6,-6 15,-9 24,-9 8,0 17,3 23,8 7,-5 15,-8 24,-8 9,0 17,3 24,9 6,-7 15,-11 24,-11 18,0 33,15 33,33 0,7 -3,14 -7,19 7,6 10,15 10,24 0,10 -4,19 -12,26 0,1 0,3 0,5 0,9 -3,18 -9,24 6,7 9,15 9,24 0,10 -3,18 -10,25 7,7 10,15 10,25 0,12 -6,23 -16,30 0,1 0,2 0,3 0,20 -16,37 -36,37 -9,0 -18,-3 -24,-9 -3,2 -6,4 -9,5 -2,23 -5,47 -10,66 -8,32 -15,37 -22,37z"/>
 </g>
</svg>
