<?xml version="1.0" encoding="UTF-8"?>
<!DOCTYPE svg PUBLIC "-//W3C//DTD SVG 1.1//EN" "http://www.w3.org/Graphics/SVG/1.1/DTD/svg11.dtd">
<!-- Creator: CorelDRAW X6 -->
<svg xmlns="http://www.w3.org/2000/svg" xml:space="preserve" width="6.1707mm" height="6.1707mm" version="1.1" style="shape-rendering:geometricPrecision; text-rendering:geometricPrecision; image-rendering:optimizeQuality; fill-rule:evenodd; clip-rule:evenodd"
viewBox="0 0 752 752"
 xmlns:xlink="http://www.w3.org/1999/xlink">
 <defs>
  <style type="text/css">
   <![CDATA[
    .fil0 {fill:black;fill-rule:nonzero}
   ]]>
  </style>
 </defs>
 <g id="Слой_x0020_1">
  <metadata id="CorelCorpID_0Corel-Layer"/>
  <path class="fil0" d="M330 94c-130,0 -236,106 -236,236 0,130 106,235 236,235 130,0 235,-105 235,-235 0,-130 -105,-236 -235,-236zm401 637c-27,28 -72,28 -100,0l-124 -124c-51,32 -112,52 -177,52 -182,0 -330,-147 -330,-329 0,-182 148,-330 330,-330 182,0 329,148 329,330 0,65 -20,126 -52,177l124 124c28,28 28,73 0,100z"/>
 </g>
</svg>
