<?xml version="1.0" encoding="UTF-8"?>
<!DOCTYPE svg PUBLIC "-//W3C//DTD SVG 1.1//EN" "http://www.w3.org/Graphics/SVG/1.1/DTD/svg11.dtd">
<!-- Creator: CorelDRAW X6 -->
<svg xmlns="http://www.w3.org/2000/svg" xml:space="preserve" width="13.6668mm" height="20.4471mm" version="1.1" style="shape-rendering:geometricPrecision; text-rendering:geometricPrecision; image-rendering:optimizeQuality; fill-rule:evenodd; clip-rule:evenodd"
viewBox="0 0 975 1458"
 xmlns:xlink="http://www.w3.org/1999/xlink">
 <defs>
  <style type="text/css">
   <![CDATA[
    .fil0 {fill:white;fill-rule:nonzero}
   ]]>
  </style>
 </defs>
 <g id="Слой_x0020_1">
  <metadata id="CorelCorpID_0Corel-Layer"/>
  <path class="fil0" d="M905 1458c14,0 26,-10 29,-24 2,-15 5,-32 8,-48 33,-174 73,-391 -55,-557 -123,-161 -124,-420 -124,-423 0,-16 -14,-29 -30,-29l0 0c-16,0 -29,13 -29,29 0,11 1,282 137,458 111,146 75,340 44,511 -3,17 -6,33 -9,49 -3,16 8,31 24,34 1,0 3,0 5,0z"/>
  <path class="fil0" d="M705 1281c1,0 3,0 4,-1 16,-2 27,-17 25,-33 -31,-187 101,-434 103,-436 7,-15 2,-32 -12,-40 -14,-8 -32,-3 -40,12 -6,11 -143,267 -109,473 2,15 14,25 29,25z"/>
  <path class="fil0" d="M276 1374l0 0c17,-1 29,-14 29,-30 -5,-273 53,-441 200,-583 162,-156 251,-335 255,-342 1,-4 2,-8 3,-12 0,-2 8,-216 8,-378 0,-16 -13,-29 -30,-29 -16,0 -29,13 -29,29 0,146 -7,332 -8,369 -16,31 -101,187 -240,321 -158,152 -223,339 -218,626 1,16 14,29 30,29z"/>
  <path class="fil0" d="M449 1433c16,0 29,-13 29,-29 2,-137 -71,-280 -106,-349 -6,-13 -14,-28 -16,-33 -2,-15 -16,-26 -31,-24 -16,1 -28,15 -27,31 1,11 6,21 22,53 33,64 101,199 99,322 0,16 13,29 29,29l1 0z"/>
  <path class="fil0" d="M29 1168c12,0 23,-7 28,-18l3 -8c20,-54 58,-154 158,-272 100,-118 308,-146 310,-146 16,-2 28,-17 25,-33 -2,-16 -16,-27 -32,-25 -10,1 -233,31 -347,166 -107,125 -149,236 -169,289l-3 8c-6,15 2,32 17,37 3,2 7,2 10,2z"/>
 </g>
</svg>
