<?xml version="1.0" encoding="UTF-8"?>
<!DOCTYPE svg PUBLIC "-//W3C//DTD SVG 1.1//EN" "http://www.w3.org/Graphics/SVG/1.1/DTD/svg11.dtd">
<!-- Creator: CorelDRAW X6 -->
<svg xmlns="http://www.w3.org/2000/svg" xml:space="preserve" width="13.6668mm" height="20.4471mm" version="1.1" style="shape-rendering:geometricPrecision; text-rendering:geometricPrecision; image-rendering:optimizeQuality; fill-rule:evenodd; clip-rule:evenodd"
viewBox="0 0 312 467"
 xmlns:xlink="http://www.w3.org/1999/xlink">
 <defs>
  <style type="text/css">
   <![CDATA[
    .fil0 {fill:#13A99F;fill-rule:nonzero}
   ]]>
  </style>
 </defs>
 <g id="Слой_x0020_1">
  <metadata id="CorelCorpID_0Corel-Layer"/>
  <path class="fil0" d="M290 467c4,0 8,-3 9,-8 1,-5 2,-10 3,-15 10,-56 23,-126 -18,-179 -39,-51 -40,-134 -40,-135 0,-5 -4,-9 -9,-9l0 0c-6,0 -10,4 -10,9 0,4 1,90 44,147 36,46 24,108 14,163 -1,6 -2,11 -3,16 -1,5 3,10 8,11 0,0 1,0 2,0z"/>
  <path class="fil0" d="M226 410c0,0 1,0 1,0 5,-1 9,-6 8,-11 -10,-60 32,-139 33,-140 2,-4 1,-10 -4,-12 -5,-3 -10,-1 -13,4 -2,3 -46,85 -35,151 1,5 5,8 10,8z"/>
  <path class="fil0" d="M88 440l0 0c6,0 10,-5 10,-10 -2,-87 17,-141 64,-186 51,-50 80,-107 81,-110 1,-1 1,-2 1,-4 0,0 3,-69 3,-121 0,-5 -5,-9 -10,-9 -5,0 -9,4 -9,9 0,47 -2,107 -3,119 -5,9 -32,59 -76,102 -51,49 -72,109 -70,200 0,6 4,10 9,10z"/>
  <path class="fil0" d="M144 459c5,0 9,-4 9,-10 1,-43 -23,-89 -34,-111 -2,-5 -4,-9 -5,-11 -1,-5 -5,-8 -10,-8 -5,1 -9,5 -9,10 1,4 2,7 7,17 11,21 33,64 32,103 0,5 4,10 9,10l1 0z"/>
  <path class="fil0" d="M9 374c4,0 8,-2 9,-6l1 -3c7,-17 19,-49 51,-87 32,-37 98,-46 99,-46 5,-1 9,-6 8,-11 0,-5 -5,-9 -10,-8 -3,0 -75,10 -111,53 -35,40 -48,76 -54,93l-1 2c-2,5 0,11 5,12 1,1 2,1 3,1z"/>
 </g>
</svg>
