<?xml version="1.0" encoding="UTF-8"?>
<!DOCTYPE svg PUBLIC "-//W3C//DTD SVG 1.1//EN" "http://www.w3.org/Graphics/SVG/1.1/DTD/svg11.dtd">
<!-- Creator: CorelDRAW X6 -->
<svg xmlns="http://www.w3.org/2000/svg" xml:space="preserve" width="19.2827mm" height="14.7973mm" version="1.1" style="shape-rendering:geometricPrecision; text-rendering:geometricPrecision; image-rendering:optimizeQuality; fill-rule:evenodd; clip-rule:evenodd"
viewBox="0 0 2552 1958"
 xmlns:xlink="http://www.w3.org/1999/xlink">
 <defs>
  <style type="text/css">
   <![CDATA[
    .fil0 {fill:white;fill-rule:nonzero}
   ]]>
  </style>
 </defs>
 <g id="Слой_x0020_1">
  <metadata id="CorelCorpID_0Corel-Layer"/>
  <path class="fil0" d="M1913 783c-22,37 -55,109 -55,152 0,128 104,232 233,232 67,0 131,-29 175,-80 1,-2 2,-3 4,-4 116,-109 182,-268 182,-436 0,-167 -66,-326 -181,-436 -44,-42 -132,-112 -228,-112 -128,0 -233,104 -233,232 0,51 16,98 46,138 5,7 11,14 18,23l10 12c33,36 70,78 70,153 0,45 -15,90 -41,126zm178 483c-183,0 -332,-148 -332,-331 0,-85 62,-193 69,-205 1,-2 2,-3 4,-5 14,-19 22,-43 22,-68 0,-36 -14,-54 -44,-88l-11 -12c-9,-11 -16,-20 -23,-28 -42,-58 -65,-126 -65,-198 0,-182 149,-331 332,-331 124,0 230,76 297,139 134,129 212,314 212,508 0,195 -78,379 -213,506 -63,72 -153,113 -248,113z"/>
  <path class="fil0" d="M1826 701c-286,0 -384,-147 -388,-153 -15,-24 -8,-54 15,-69 23,-15 53,-8 68,14 4,6 79,109 305,109 28,0 50,22 50,50 0,27 -22,49 -50,49z"/>
  <path class="fil0" d="M1464 1376c-27,0 -49,-21 -50,-48 -7,-309 56,-522 188,-633 121,-101 253,-76 258,-75 27,6 45,32 39,59 -5,26 -31,44 -58,39 -4,-1 -94,-17 -177,54 -105,90 -157,281 -150,553 0,28 -21,50 -49,51 0,0 -1,0 -1,0z"/>
  <path class="fil0" d="M1465 1958c-27,0 -49,-22 -49,-50l0 -565c0,-27 22,-49 49,-49 28,0 50,22 50,49l0 565c0,28 -22,50 -50,50z"/>
  <path class="fil0" d="M509 99c-97,0 -185,70 -228,112 -116,110 -182,269 -182,436 0,168 67,327 183,436 1,1 2,2 4,4 44,51 108,80 175,80 128,0 232,-104 232,-232 0,-48 -39,-126 -54,-152 -26,-36 -41,-81 -41,-126 0,-75 37,-117 69,-153l10 -12c8,-9 14,-16 19,-23 29,-40 45,-87 45,-138 0,-128 -104,-232 -232,-232zm-48 1167c-95,0 -186,-41 -249,-113 -135,-127 -212,-311 -212,-506 0,-194 77,-379 212,-508 67,-63 172,-139 297,-139 183,0 331,149 331,331 0,72 -22,140 -65,198 -6,8 -13,17 -23,28l-10 12c-30,34 -45,52 -45,88 0,25 8,49 23,68 1,2 2,3 3,5 7,12 69,120 69,205 0,183 -148,331 -331,331z"/>
  <path class="fil0" d="M725 701c-27,0 -49,-22 -49,-49 0,-28 22,-50 49,-50 228,0 302,-104 305,-109 16,-22 46,-28 69,-13 23,15 29,45 15,68 -5,6 -103,153 -389,153z"/>
  <path class="fil0" d="M1088 1376c-1,0 -1,0 -2,0 -27,-1 -49,-23 -48,-51 7,-272 -45,-463 -151,-553 -83,-71 -173,-55 -176,-54 -27,5 -53,-13 -58,-40 -6,-26 12,-52 38,-58 6,-1 138,-26 259,75 132,111 195,324 187,633 -1,27 -23,48 -49,48z"/>
  <path class="fil0" d="M1086 1958c-27,0 -49,-22 -49,-50l0 -565c0,-27 22,-49 49,-49 28,0 50,22 50,49l0 565c0,28 -22,50 -50,50z"/>
 </g>
</svg>
