<?xml version="1.0" encoding="UTF-8"?>
<!DOCTYPE svg PUBLIC "-//W3C//DTD SVG 1.1//EN" "http://www.w3.org/Graphics/SVG/1.1/DTD/svg11.dtd">
<!-- Creator: CorelDRAW X6 -->
<svg xmlns="http://www.w3.org/2000/svg" xml:space="preserve" width="19.2827mm" height="14.7973mm" version="1.1" style="shape-rendering:geometricPrecision; text-rendering:geometricPrecision; image-rendering:optimizeQuality; fill-rule:evenodd; clip-rule:evenodd"
viewBox="0 0 583 448"
 xmlns:xlink="http://www.w3.org/1999/xlink">
 <defs>
  <style type="text/css">
   <![CDATA[
    .fil0 {fill:#13A99F;fill-rule:nonzero}
   ]]>
  </style>
 </defs>
 <g id="Слой_x0020_1">
  <metadata id="CorelCorpID_0Corel-Layer"/>
  <path class="fil0" d="M437 179c-5,8 -12,25 -12,35 0,29 24,53 53,53 15,0 30,-7 40,-19 0,0 1,0 1,0 26,-25 42,-62 42,-100 0,-38 -15,-75 -42,-100 -10,-9 -30,-25 -52,-25 -29,0 -53,23 -53,53 0,11 3,22 10,31 1,2 3,3 5,6l2 2c7,9 16,18 16,35 0,11 -4,21 -10,29zm41 110c-42,0 -76,-34 -76,-75 0,-20 14,-44 16,-47 0,0 0,-1 1,-1 3,-5 5,-10 5,-16 0,-8 -3,-12 -10,-20l-3 -3c-2,-2 -3,-4 -5,-6 -10,-13 -15,-29 -15,-45 0,-42 34,-76 76,-76 28,0 53,17 68,32 31,29 48,72 48,116 0,44 -17,87 -48,116 -15,16 -35,25 -57,25z"/>
  <path class="fil0" d="M418 160c-66,0 -88,-33 -89,-35 -4,-5 -2,-12 3,-16 5,-3 12,-1 16,4 1,1 18,25 70,25 6,0 11,5 11,11 0,6 -5,11 -11,11z"/>
  <path class="fil0" d="M335 315c-6,0 -11,-5 -12,-11 -1,-71 13,-120 43,-145 28,-23 58,-17 59,-17 6,1 10,7 9,13 -1,6 -7,10 -13,9 -1,0 -22,-4 -41,13 -24,20 -36,64 -34,126 0,6 -5,11 -11,12 0,0 0,0 0,0z"/>
  <path class="fil0" d="M335 448c-6,0 -11,-5 -11,-12l0 -129c0,-6 5,-11 11,-11 6,0 11,5 11,11l0 129c0,7 -5,12 -11,12z"/>
  <path class="fil0" d="M116 23c-22,0 -42,16 -52,25 -26,25 -41,62 -41,100 0,38 15,75 41,100 1,0 1,0 1,0 10,12 25,19 40,19 30,0 53,-24 53,-53 0,-11 -8,-29 -12,-35 -6,-8 -9,-18 -9,-29 0,-17 8,-26 16,-35l2 -2c2,-3 3,-4 4,-6 7,-9 10,-20 10,-31 0,-30 -23,-53 -53,-53zm-11 266c-21,0 -42,-9 -56,-25 -31,-29 -49,-72 -49,-116 0,-44 18,-87 48,-116 16,-15 40,-32 68,-32 42,0 76,34 76,76 0,16 -5,32 -15,45 -1,2 -3,4 -5,6l-2 3c-7,8 -11,12 -11,20 0,6 2,11 6,16 0,0 0,1 0,1 2,3 16,27 16,47 0,41 -34,75 -76,75z"/>
  <path class="fil0" d="M166 160c-6,0 -12,-5 -12,-11 0,-6 6,-11 12,-11 52,0 69,-24 70,-25 3,-5 10,-7 15,-3 5,3 7,10 4,15 -1,2 -24,35 -89,35z"/>
  <path class="fil0" d="M249 315c0,0 -1,0 -1,0 -6,-1 -11,-6 -11,-12 2,-62 -10,-106 -34,-126 -19,-17 -40,-13 -41,-13 -6,1 -12,-3 -13,-9 -1,-6 3,-12 9,-13 1,0 31,-6 59,17 30,25 45,74 43,145 0,6 -5,11 -11,11z"/>
  <path class="fil0" d="M248 448c-6,0 -11,-5 -11,-12l0 -129c0,-6 5,-11 11,-11 7,0 12,5 12,11l0 129c0,7 -5,12 -12,12z"/>
 </g>
</svg>
