<?xml version="1.0" encoding="UTF-8"?>
<!DOCTYPE svg PUBLIC "-//W3C//DTD SVG 1.1//EN" "http://www.w3.org/Graphics/SVG/1.1/DTD/svg11.dtd">
<!-- Creator: CorelDRAW X6 -->
<svg xmlns="http://www.w3.org/2000/svg" xml:space="preserve" width="7.1402mm" height="8.6335mm" version="1.1" style="shape-rendering:geometricPrecision; text-rendering:geometricPrecision; image-rendering:optimizeQuality; fill-rule:evenodd; clip-rule:evenodd"
viewBox="0 0 507 613"
 xmlns:xlink="http://www.w3.org/1999/xlink">
 <defs>
  <style type="text/css">
   <![CDATA[
    .fil0 {fill:#13A89F;fill-rule:nonzero}
   ]]>
  </style>
 </defs>
 <g id="Слой_x0020_1">
  <metadata id="CorelCorpID_0Corel-Layer"/>
  <path class="fil0" d="M407 58l0 171 -31 0 0 -19c-12,15 -24,22 -36,22 -10,0 -17,-5 -20,-13 -2,-5 -2,-14 -2,-26l0 -135 31 0 0 126c0,8 0,12 0,12 1,5 3,8 7,8 6,0 13,-5 20,-15l0 -131 31 0zm-115 56l0 60c0,18 -3,32 -9,40 -9,12 -21,18 -37,18 -15,0 -27,-6 -36,-18 -6,-8 -9,-22 -9,-40l0 -60c0,-18 3,-32 9,-40 9,-12 21,-18 36,-18 16,0 28,6 37,18 6,8 9,22 9,40zm-126 -114l35 0 -42 137 0 92 -34 0 0 -92c-3,-17 -10,-42 -21,-73 -8,-24 -16,-45 -22,-64l36 0 24 90 24 -90zm341 437c0,53 -3,93 -9,119 -3,14 -10,25 -20,34 -10,9 -21,15 -35,16 -42,5 -105,7 -189,7 -85,0 -148,-2 -190,-7 -14,-1 -25,-7 -35,-16 -11,-9 -17,-20 -20,-34 -6,-25 -9,-65 -9,-119 0,-54 3,-94 9,-120 3,-14 10,-25 20,-34 10,-9 22,-15 35,-16 42,-5 105,-7 190,-7 84,0 147,2 189,7 14,1 25,7 36,16 10,9 16,20 19,34 6,25 9,65 9,120zm-246 -257l0 -72c0,-16 -5,-24 -15,-24 -9,0 -14,8 -14,24l0 72c0,16 5,24 14,24 10,0 15,-8 15,-24zm208 312l0 -4 -31 0c0,11 0,18 -1,20 -1,9 -6,13 -13,13 -11,0 -16,-8 -16,-24l0 -30 61 0 0 -35c0,-18 -3,-31 -9,-40 -9,-11 -21,-17 -36,-17 -16,0 -28,6 -37,17 -6,9 -10,22 -10,40l0 59c0,18 4,32 10,40 9,12 22,17 37,17 17,0 29,-6 37,-18 4,-6 7,-12 7,-18 1,-2 1,-9 1,-20zm-116 3l0 -67c0,-17 -1,-28 -3,-34 -4,-13 -12,-19 -24,-19 -11,0 -22,6 -32,18l0 -74 -30 0 0 227 30 0 0 -16c11,12 21,18 32,18 12,0 20,-6 24,-18 2,-6 3,-18 3,-35zm-146 51l30 0 0 -169 -30 0 0 129c-7,10 -14,15 -20,15 -4,0 -6,-3 -7,-7 0,-1 0,-5 0,-12l0 -125 -31 0 0 134c0,11 1,19 3,25 3,8 9,12 20,12 11,0 22,-6 35,-20l0 18zm-99 -195l37 0 0 -32 -107 0 0 32 36 0 0 195 34 0 0 -195zm331 75l0 16 -31 0 0 -16c0,-16 5,-23 15,-23 11,0 16,7 16,23zm-116 0l0 72c0,15 -4,23 -13,23 -6,0 -11,-3 -16,-8l0 -103c5,-5 10,-7 16,-7 9,0 13,7 13,23z"/>
 </g>
</svg>
